<svg width="27" height="17" viewBox="0 0 27 17" fill="none" xmlns="http://www.w3.org/2000/svg">
<path d="M16.122 16.5426C15.7753 16.2377 15.6089 15.8692 15.6227 15.4372C15.6378 15.0052 15.8186 14.6368 16.1653 14.3318L21.0626 10.0247H1.73355C1.24238 10.0247 0.830369 9.87829 0.497528 9.58556C0.165843 9.29384 0 8.93199 0 8.5C0 8.06801 0.165843 7.70565 0.497528 7.41291C0.830369 7.12119 1.24238 6.97534 1.73355 6.97534H21.0626L16.122 2.63004C15.7753 2.32511 15.6019 1.96275 15.6019 1.54296C15.6019 1.12418 15.7753 0.762331 16.122 0.457399C16.4687 0.152466 16.8807 0 17.358 0C17.8342 0 18.2456 0.152466 18.5923 0.457399L26.5233 7.43273C26.6966 7.5852 26.8197 7.75037 26.8925 7.92825C26.9642 8.10613 27 8.29671 27 8.5C27 8.70329 26.9642 8.89387 26.8925 9.07175C26.8197 9.24963 26.6966 9.4148 26.5233 9.56726L18.549 16.5807C18.2311 16.8602 17.8342 17 17.358 17C16.8807 17 16.4687 16.8475 16.122 16.5426Z" fill="#007D8B"/>
</svg>
