<svg width="23" height="20" viewBox="0 0 23 20" fill="none" xmlns="http://www.w3.org/2000/svg">
<path d="M11.5082 16.9482L11.3992 17.0572L11.2793 16.9482C6.10218 12.2507 2.67984 9.14441 2.67984 5.99455C2.67984 3.81471 4.31471 2.17984 6.49455 2.17984C8.17303 2.17984 9.8079 3.26975 10.3856 4.75204H12.4128C12.9905 3.26975 14.6253 2.17984 16.3038 2.17984C18.4837 2.17984 20.1185 3.81471 20.1185 5.99455C20.1185 9.14441 16.6962 12.2507 11.5082 16.9482ZM16.3038 0C14.4074 0 12.5872 0.882834 11.3992 2.26703C10.2112 0.882834 8.39101 0 6.49455 0C3.1376 0 0.5 2.6267 0.5 5.99455C0.5 10.1035 4.20572 13.4714 9.8188 18.5613L11.3992 20L12.9796 18.5613C18.5926 13.4714 22.2984 10.1035 22.2984 5.99455C22.2984 2.6267 19.6608 0 16.3038 0Z" fill="#007D8B"/>
</svg>
