<svg width="26" height="28" viewBox="0 0 26 28" fill="none" xmlns="http://www.w3.org/2000/svg">
<path d="M12.9429 26.6085L11.5872 25.1311L11.5864 25.1302C8.34844 21.615 5.70503 18.7406 3.86406 16.0441C2.03165 13.3602 1.03552 10.9098 1.03552 8.25315C1.03552 3.85293 3.88841 0.626703 7.30255 0.626703C9.24826 0.626703 11.1642 1.71581 12.4335 3.48634L12.9429 4.19681L13.4522 3.48634C14.7215 1.71581 16.6375 0.626703 18.5832 0.626703C21.9973 0.626703 24.8502 3.85293 24.8502 8.25315C24.8502 10.9098 23.8541 13.3602 22.0217 16.0441C20.1807 18.7406 17.5373 21.615 14.2994 25.1302L14.2985 25.1311L12.9429 26.6085Z" stroke="#BEBEBE" stroke-width="1.25341"/>
</svg>
