<svg width="28" height="23" viewBox="0 0 28 23" fill="none" xmlns="http://www.w3.org/2000/svg">
<path d="M15.6404 22.5457L27.5056 12.5513C27.6854 12.3998 27.813 12.2358 27.8885 12.0591C27.9628 11.8825 28 11.6932 28 11.4913C28 11.2894 27.9628 11.1001 27.8885 10.9234C27.813 10.7467 27.6854 10.5827 27.5056 10.4312L15.6404 0.436819C15.3109 0.159196 14.8992 0.0138229 14.4054 0.000698913C13.9104 -0.0114155 13.4831 0.133957 13.1236 0.436819C12.764 0.714442 12.5765 1.06122 12.5609 1.47715C12.5465 1.89409 12.7191 2.25399 13.0787 2.55685L21.8876 9.97696H1.79775C1.28839 9.97696 0.861124 10.1218 0.515955 10.4116C0.171986 10.7023 -1.90735e-06 11.0622 -1.90735e-06 11.4913C-1.90735e-06 11.9203 0.171986 12.2797 0.515955 12.5694C0.861124 12.8602 1.28839 13.0056 1.79775 13.0056H21.8876L13.0787 20.4257C12.7491 20.7033 12.5765 21.0566 12.5609 21.4857C12.5465 21.9147 12.7191 22.2681 13.0787 22.5457C13.4082 22.8486 13.8277 23 14.3371 23C14.8464 23 15.2809 22.8486 15.6404 22.5457Z" fill="white"/>
</svg>
